<svg width="280" height="280" viewBox="0 0 280 280" fill="none" xmlns="http://www.w3.org/2000/svg">
<path d="M269.983 140C275.515 140 280.037 135.509 279.642 129.991C277.891 105.562 269.755 81.9547 255.969 61.57C240.307 38.4125 218.071 20.4741 192.125 10.0654C166.179 -0.343293 137.71 -2.74562 110.386 3.16786C83.0627 9.08135 58.1351 23.0398 38.8143 43.2453C19.4936 63.4509 6.66462 88.9781 1.97976 116.539C-2.7051 144.1 0.968745 172.432 12.5281 197.887C24.0874 223.342 43.0029 244.753 66.8381 259.362C87.8192 272.222 111.767 279.294 136.25 279.95C141.78 280.098 146.064 275.379 145.817 269.853C145.569 264.326 140.882 260.09 135.354 259.876C114.873 259.082 94.8769 253.05 77.3077 242.281C56.8834 229.762 40.6748 211.415 30.7696 189.603C20.8644 167.791 17.7163 143.513 21.7308 119.896C25.7452 96.2795 36.7383 74.4052 53.2942 57.0912C69.8501 39.7771 91.2105 27.8161 114.624 22.7489C138.038 17.6816 162.432 19.7402 184.666 28.6593C206.899 37.5786 225.953 52.9499 239.373 72.7935C250.918 89.8632 257.838 109.57 259.548 129.994C260.009 135.507 264.451 140 269.983 140Z" fill="#21ABE1"/>
<path d="M165.087 267.539C166.154 272.967 171.434 276.538 176.772 275.085C203.423 267.831 227.341 252.848 245.498 232.034C249.134 227.865 248.226 221.557 243.807 218.228C239.389 214.898 233.138 215.814 229.452 219.939C214.331 236.859 194.713 249.148 172.891 255.369C167.57 256.886 164.019 262.111 165.087 267.539Z" fill="#007FC5"/>
<path d="M255.523 199.582C260.44 202.118 266.517 200.2 268.695 195.114C272.103 187.157 274.765 178.901 276.648 170.453C277.851 165.053 274.039 159.946 268.567 159.132C263.095 158.317 258.041 162.107 256.773 167.492C255.293 173.78 253.307 179.938 250.835 185.906C248.718 191.017 250.606 197.046 255.523 199.582Z" fill="#007FC5"/>
</svg>
