<svg width="24" height="24" viewBox="0 0 24 24" fill="none" xmlns="http://www.w3.org/2000/svg">
<path d="M18.75 2.99985H15.3469C14.9265 2.52768 14.4109 2.1498 13.8341 1.89105C13.2573 1.6323 12.6322 1.49854 12 1.49854C11.3678 1.49854 10.7427 1.6323 10.1659 1.89105C9.58908 2.1498 9.07353 2.52768 8.65313 2.99985H5.25C4.85218 2.99985 4.47064 3.15788 4.18934 3.43919C3.90804 3.72049 3.75 4.10202 3.75 4.49985V20.2498C3.75 20.6477 3.90804 21.0292 4.18934 21.3105C4.47064 21.5918 4.85218 21.7498 5.25 21.7498H18.75C19.1478 21.7498 19.5294 21.5918 19.8107 21.3105C20.092 21.0292 20.25 20.6477 20.25 20.2498V4.49985C20.25 4.10202 20.092 3.72049 19.8107 3.43919C19.5294 3.15788 19.1478 2.99985 18.75 2.99985ZM12 2.99985C12.7949 3.00232 13.5565 3.31918 14.1186 3.88126C14.6807 4.44333 14.9975 5.20496 15 5.99985H9C9.00247 5.20496 9.31934 4.44333 9.88141 3.88126C10.4435 3.31918 11.2051 3.00232 12 2.99985ZM15 14.9998H9C8.80109 14.9998 8.61032 14.9208 8.46967 14.7802C8.32902 14.6395 8.25 14.4488 8.25 14.2498C8.25 14.0509 8.32902 13.8602 8.46967 13.7195C8.61032 13.5789 8.80109 13.4998 9 13.4998H15C15.1989 13.4998 15.3897 13.5789 15.5303 13.7195C15.671 13.8602 15.75 14.0509 15.75 14.2498C15.75 14.4488 15.671 14.6395 15.5303 14.7802C15.3897 14.9208 15.1989 14.9998 15 14.9998ZM15 11.9998H9C8.80109 11.9998 8.61032 11.9208 8.46967 11.7802C8.32902 11.6395 8.25 11.4488 8.25 11.2498C8.25 11.0509 8.32902 10.8602 8.46967 10.7195C8.61032 10.5789 8.80109 10.4998 9 10.4998H15C15.1989 10.4998 15.3897 10.5789 15.5303 10.7195C15.671 10.8602 15.75 11.0509 15.75 11.2498C15.75 11.4488 15.671 11.6395 15.5303 11.7802C15.3897 11.9208 15.1989 11.9998 15 11.9998Z" fill="#EEA025"/>
</svg>
