<svg width="24" height="24" viewBox="0 0 24 24" fill="none" xmlns="http://www.w3.org/2000/svg">
<path d="M22.3266 17.52C22.2797 17.3537 22.1701 17.2121 22.0209 17.1251C21.8716 17.038 21.6944 17.0123 21.5266 17.0533L19.8666 17.5C20.775 16.161 21.3257 14.6119 21.4666 13C21.6028 11.4919 21.3822 9.97298 20.8229 8.56588C20.2635 7.15878 19.381 5.903 18.2466 4.90001C18.1155 4.79155 17.9478 4.73735 17.778 4.74851C17.6082 4.75966 17.4491 4.83533 17.3333 4.96001C17.2167 5.09269 17.1576 5.26619 17.1688 5.44242C17.1801 5.61866 17.2608 5.78323 17.3933 5.90001C18.3707 6.76284 19.1312 7.84381 19.6131 9.05534C20.0949 10.2669 20.2845 11.5749 20.1666 12.8733C20.0524 14.241 19.5937 15.5575 18.8333 16.7L18.6666 15.0267C18.6792 14.9282 18.6696 14.8282 18.6385 14.7339C18.6075 14.6396 18.5558 14.5534 18.4872 14.4816C18.4186 14.4098 18.3348 14.3543 18.242 14.3191C18.1492 14.2838 18.0497 14.2697 17.9508 14.2778C17.8518 14.286 17.7559 14.3161 17.6701 14.366C17.5843 14.4159 17.5107 14.4843 17.4547 14.5663C17.3987 14.6483 17.3618 14.7418 17.3465 14.8399C17.3313 14.938 17.3381 15.0382 17.3666 15.1333L17.6999 19.4267L21.8666 18.32C22.0316 18.2717 22.1717 18.1615 22.2574 18.0125C22.3431 17.8634 22.3679 17.6869 22.3266 17.52Z" fill="#999999"/>
<path d="M2.87335 11.3869C2.96195 11.4439 3.06218 11.4803 3.16668 11.4936C3.34067 11.5164 3.51664 11.4697 3.65642 11.3636C3.7962 11.2575 3.88852 11.1006 3.91335 10.9269C4.18881 8.89301 5.22245 7.03824 6.80728 5.73404C8.39211 4.42983 10.4111 3.77246 12.46 3.89357L10.9667 4.91357C10.861 4.99317 10.7814 5.10241 10.738 5.22738C10.6946 5.35235 10.6894 5.4874 10.723 5.61536C10.7566 5.74331 10.8275 5.85837 10.9267 5.9459C11.0259 6.03344 11.1489 6.08948 11.28 6.10691C11.4302 6.12064 11.5806 6.08303 11.7067 6.00024L15.26 3.56024L12.22 0.506907C12.1659 0.424014 12.094 0.354208 12.0096 0.302556C11.9252 0.250905 11.8303 0.218703 11.7319 0.20829C11.6334 0.197876 11.5339 0.209512 11.4405 0.242353C11.3472 0.275194 11.2623 0.328415 11.192 0.398153C11.1218 0.467891 11.0679 0.552396 11.0344 0.645532C11.0009 0.738668 10.9886 0.838099 10.9983 0.936604C11.008 1.03511 11.0395 1.13022 11.0905 1.21503C11.1416 1.29984 11.2108 1.37221 11.2933 1.42691L12.4267 2.56024C10.0606 2.4471 7.73802 3.22515 5.91753 4.74078C4.09705 6.25641 2.91094 8.39948 2.59335 10.7469C2.57626 10.869 2.59338 10.9935 2.64281 11.1065C2.69224 11.2195 2.77205 11.3166 2.87335 11.3869Z" fill="#999999"/>
<path d="M14.4866 19.9533C13.4456 20.2859 12.3474 20.4016 11.2599 20.2933C9.93551 20.1635 8.66258 19.7133 7.55104 18.9816C6.4395 18.2498 5.52275 17.2586 4.87994 16.0933L6.53994 16.7133C6.69296 16.7399 6.85044 16.7122 6.98521 16.635C7.11997 16.5578 7.22356 16.436 7.27809 16.2906C7.33262 16.1451 7.33467 15.9853 7.28389 15.8385C7.23311 15.6917 7.13268 15.5673 6.99994 15.4867L3.93994 14.3533L2.95994 14L2.21994 18.2333C2.19429 18.4025 2.23465 18.575 2.33269 18.7153C2.43072 18.8555 2.57892 18.9527 2.74661 18.9867H2.85994C3.01685 18.9895 3.16973 18.9369 3.29168 18.8382C3.41363 18.7394 3.49682 18.6007 3.52661 18.4467L3.80661 16.8467C4.56062 18.1675 5.61972 19.2888 6.89546 20.1169C8.17119 20.9449 9.62653 21.4558 11.1399 21.6067C12.4052 21.7321 13.6828 21.5959 14.8933 21.2067C15.0474 21.1428 15.172 21.0236 15.2425 20.8724C15.3129 20.7212 15.3242 20.549 15.2739 20.39C15.2237 20.2309 15.1157 20.0964 14.9711 20.0131C14.8266 19.9298 14.6561 19.9037 14.4933 19.94L14.4866 19.9533Z" fill="#999999"/>
<path d="M14.6667 8.6665H9.33341C9.1566 8.6665 8.98703 8.73674 8.86201 8.86177C8.73699 8.98679 8.66675 9.15636 8.66675 9.33317V14.6665C8.66675 14.8433 8.73699 15.0129 8.86201 15.1379C8.98703 15.2629 9.1566 15.3332 9.33341 15.3332H14.6667C14.8436 15.3332 15.0131 15.2629 15.1382 15.1379C15.2632 15.0129 15.3334 14.8433 15.3334 14.6665V9.33317C15.3334 9.15636 15.2632 8.98679 15.1382 8.86177C15.0131 8.73674 14.8436 8.6665 14.6667 8.6665ZM14.0001 13.9998H10.0001V9.99984H14.0001V13.9998Z" fill="#999999"/>
</svg>
